<svg version="1.1" xmlns="http://www.w3.org/2000/svg" xmlns:xlink="http://www.w3.org/1999/xlink" width="14" height="21.9318" viewBox="0,0,14,21.9318"><g transform="translate(-173,-309)"><g data-paper-data="{&quot;isPaintingLayer&quot;:true}" fill="none" fill-rule="nonzero" stroke="#ffffff" stroke-width="2" stroke-linecap="round" stroke-linejoin="round" stroke-miterlimit="10" stroke-dasharray="" stroke-dashoffset="0" style="mix-blend-mode: normal"><path d="M183.477,320.89l1.515,8.526c0.03475,0.20559 -0.06173,0.41115 -0.24207,0.5158c-0.18034,0.10464 -0.40669,0.08639 -0.56793,-0.0458l-3.58,-2.687c-0.35494,-0.26517 -0.84206,-0.26517 -1.197,0l-3.586,2.686c-0.16111,0.13194 -0.38712,0.15021 -0.56734,0.04587c-0.18021,-0.10435 -0.27688,-0.30946 -0.24266,-0.51487l1.514,-8.526"/><path d="M174,316c0,-3.31371 2.68629,-6 6,-6c3.31371,0 6,2.68629 6,6c0,3.31371 -2.68629,6 -6,6c-3.31371,0 -6,-2.68629 -6,-6z"/></g></g></svg>