<svg version="1.1" xmlns="http://www.w3.org/2000/svg" xmlns:xlink="http://www.w3.org/1999/xlink" width="19.5" height="22" viewBox="0,0,19.5,22"><g transform="translate(-170.25,-309)"><g fill="none" stroke="#ffffff" stroke-width="2" stroke-linecap="round" stroke-linejoin="round" stroke-miterlimit="10"><path d="M182.22,312v0.18c0.00073,0.7138 0.38183,1.3731 1,1.73l0.43,0.25c0.6188,0.35726 1.3812,0.35726 2,0l0.15,-0.08c0.95559,-0.55124 2.17707,-0.22461 2.73,0.73l0.22,0.38c0.55123,0.95559 0.22461,2.17707 -0.73,2.73l-0.15,0.09c-0.62127,0.35868 -1.00285,1.02263 -1,1.74v0.5c-0.00285,0.71737 0.37873,1.38132 1,1.74l0.15,0.08c0.95461,0.55293 1.28123,1.77441 0.73,2.73l-0.22,0.39c-0.55293,0.95461 -1.77441,1.28124 -2.73,0.73l-0.15,-0.08c-0.6188,-0.35726 -1.3812,-0.35726 -2,0l-0.43,0.25c-0.61817,0.3569 -0.99927,1.0162 -1,1.73v0.18c0,1.10457 -0.89543,2 -2,2h-0.44c-1.10457,0 -2,-0.89543 -2,-2v-0.18c-0.00073,-0.7138 -0.38183,-1.3731 -1,-1.73l-0.43,-0.25c-0.6188,-0.35726 -1.3812,-0.35726 -2,0l-0.15,0.08c-0.95559,0.55124 -2.17707,0.22461 -2.73,-0.73l-0.22,-0.38c-0.55123,-0.95559 -0.22461,-2.17707 0.73,-2.73l0.15,-0.09c0.62127,-0.35868 1.00285,-1.02263 1,-1.74v-0.51c-0.00429,-0.71022 -0.38491,-1.3649 -1,-1.72l-0.15,-0.1c-0.95461,-0.55293 -1.28123,-1.77441 -0.73,-2.73l0.22,-0.38c0.55293,-0.95461 1.77441,-1.28124 2.73,-0.73l0.15,0.08c0.6188,0.35726 1.3812,0.35726 2,0l0.43,-0.25c0.61817,-0.3569 0.99927,-1.0162 1,-1.73v-0.18c0,-1.10457 0.89543,-2 2,-2h0.44c1.10457,0 2,0.89543 2,2z"/><path d="M177,320c0,-1.65686 1.34314,-3 3,-3c1.65686,0 3,1.34314 3,3c0,1.65686 -1.34314,3 -3,3c-1.65686,0 -3,-1.34314 -3,-3z"/></g></g></svg>