<svg version="1.1" xmlns="http://www.w3.org/2000/svg" xmlns:xlink="http://www.w3.org/1999/xlink" width="22" height="20" viewBox="0,0,22,20"><g transform="translate(-169,-310)"><g data-paper-data="{&quot;isPaintingLayer&quot;:true}" fill="none" fill-rule="nonzero" stroke="#ffffff" stroke-width="2" stroke-linecap="round" stroke-linejoin="round" stroke-miterlimit="10" stroke-dasharray="" stroke-dashoffset="0" style="mix-blend-mode: normal"><path d="M170,329c0,-4.41828 3.58172,-8 8,-8c4.41828,0 8,3.58172 8,8"/><path d="M173,316c0,-2.76142 2.23858,-5 5,-5c2.76142,0 5,2.23858 5,5c0,2.76142 -2.23858,5 -5,5c-2.76142,0 -5,-2.23858 -5,-5z"/><path d="M185.55,311.7c1.4356,0.85147 2.35166,2.36313 2.44202,4.0298c0.09036,1.66667 -0.65689,3.26851 -1.99202,4.2702c2,1.5 4,4.63 4,8"/></g></g></svg>