<svg version="1.1" xmlns="http://www.w3.org/2000/svg" xmlns:xlink="http://www.w3.org/1999/xlink" width="22.04" height="21.95" viewBox="0,0,22.04,21.95"><g transform="translate(-169.05,-309.05)"><g fill="none" stroke="#ffffff" stroke-width="2" stroke-linecap="round" stroke-linejoin="round" stroke-miterlimit="10"><path d="M175,329c0,-0.55228 0.44771,-1 1,-1c0.55229,0 1,0.44772 1,1c0,0.55228 -0.44771,1 -1,1c-0.55229,0 -1,-0.44772 -1,-1z"/><path d="M186,329c0,-0.55228 0.44771,-1 1,-1c0.55229,0 1,0.44772 1,1c0,0.55228 -0.44771,1 -1,1c-0.55229,0 -1,-0.44772 -1,-1z"/><path d="M173.12,315.05h16.97l-1.65,7.43c-0.2016,0.91574 -1.01233,1.56849 -1.95,1.57h-9.78c-0.95938,0.02134 -1.79871,-0.64173 -2,-1.58l-2.66,-12.42h-2"/></g></g></svg>