<svg version="1.1" xmlns="http://www.w3.org/2000/svg" xmlns:xlink="http://www.w3.org/1999/xlink" width="20" height="20" viewBox="0,0,20,20"><g transform="translate(-170,-310)"><g data-paper-data="{&quot;isPaintingLayer&quot;:true}" fill="none" fill-rule="nonzero" stroke="#ffffff" stroke-width="2" stroke-linecap="round" stroke-linejoin="round" stroke-miterlimit="10" stroke-dasharray="" stroke-dashoffset="0" style="mix-blend-mode: normal"><path d="M172,320c-0.55228,0 -1,0 -1,0v-4c0,0 0.44772,0 1,0h16c0.55228,0 1,0 1,0v4c0,0 -0.44772,0 -1,0z"/><path d="M180,316v13"/><path d="M187,320v7c0,1.10457 -0.89543,2 -2,2h-10c-1.10457,0 -2,-0.89543 -2,-2v-7"/><path d="M175.5,316c-1.38071,0 -2.5,-1.11929 -2.5,-2.5c0,-1.38071 1.11929,-2.5 2.5,-2.5c1.97423,-0.0344 3.75973,1.94949 4.5,5c0.74027,-3.05051 2.52577,-5.0344 4.5,-5c1.38071,0 2.5,1.11929 2.5,2.5c0,1.38071 -1.11929,2.5 -2.5,2.5"/></g></g></svg>