<svg version="1.1" xmlns="http://www.w3.org/2000/svg" xmlns:xlink="http://www.w3.org/1999/xlink" width="69.96429" height="69.96429" viewBox="0,0,69.96429,69.96429"><g transform="translate(-145.01786,-285.01786)"><g data-paper-data="{&quot;isPaintingLayer&quot;:true}" fill-rule="nonzero" stroke-width="0" stroke-linecap="butt" stroke-linejoin="miter" stroke-miterlimit="10" stroke-dasharray="" stroke-dashoffset="0" style="mix-blend-mode: normal"><path d="M148.94643,351.05357v-62.10715h62.10715v62.10715z" fill="#ffaaaa" stroke="#000000"/><path d="M207.125,351.05357c0,-2.16969 1.75888,-3.92858 3.92857,-3.92858c2.16969,0 3.92857,1.75889 3.92857,3.92858c0,2.16969 -1.75888,3.92857 -3.92857,3.92857c-2.16969,0 -3.92857,-1.75888 -3.92857,-3.92857z" fill="#ffaaaa" stroke="none"/><path d="M145.01786,351.05357c0,-2.16969 1.75888,-3.92857 3.92857,-3.92857c2.16969,0 3.92857,1.75888 3.92857,3.92857c0,2.16969 -1.75888,3.92857 -3.92857,3.92857c-2.16969,0 -3.92857,-1.75888 -3.92857,-3.92857z" fill="#ffaaaa" stroke="none"/><path d="M207.125,288.94643c0,-2.16969 1.75888,-3.92857 3.92857,-3.92857c2.16969,0 3.92857,1.75888 3.92857,3.92857c0,2.16969 -1.75888,3.92857 -3.92857,3.92857c-2.16969,0 -3.92857,-1.75888 -3.92857,-3.92857z" fill="#ffaaaa" stroke="none"/><path d="M145.01786,288.94643c0,-2.16969 1.75888,-3.92857 3.92857,-3.92857c2.16969,0 3.92857,1.75888 3.92857,3.92857c0,2.16969 -1.75888,3.92857 -3.92857,3.92857c-2.16969,0 -3.92857,-1.75888 -3.92857,-3.92857z" fill="#ffaaaa" stroke="none"/><path d="M148.94643,354.98214v-69.96429h62.10715v69.96429z" fill="#ffaaaa" stroke="none"/><path d="M145.01786,351.05357v-62.10715h69.96429v62.10715z" fill="#ffaaaa" stroke="none"/></g></g></svg>