<svg version="1.1" xmlns="http://www.w3.org/2000/svg" xmlns:xlink="http://www.w3.org/1999/xlink" width="22" height="22" viewBox="0,0,22,22"><g transform="translate(-169,-309)"><g data-paper-data="{&quot;isPaintingLayer&quot;:true}" fill="none" fill-rule="nonzero" stroke="#ffffff" stroke-width="2" stroke-linecap="round" stroke-linejoin="round" stroke-miterlimit="10" stroke-dasharray="" stroke-dashoffset="0" style="mix-blend-mode: normal"><path d="M170,320c0,-5.52285 4.47716,-10 10,-10c5.52284,0 10,4.47715 10,10c0,5.52285 -4.47716,10 -10,10c-5.52284,0 -10,-4.47715 -10,-10z"/><path d="M174,328c0,-3.31371 2.68629,-6 6,-6c3.31371,0 6,2.68629 6,6"/><path d="M176,318c0,-2.20914 1.79086,-4 4,-4c2.20914,0 4,1.79086 4,4c0,2.20914 -1.79086,4 -4,4c-2.20914,0 -4,-1.79086 -4,-4z"/></g></g></svg>